<svg width="16" height="16" viewBox="0 0 16 16" fill="none" xmlns="http://www.w3.org/2000/svg">
<g id="size=16">
<path id="Path" d="M8.23438 14.2461C8.64831 14.2309 8.99648 14.5538 9.01172 14.9678C9.02685 15.3815 8.70379 15.7297 8.29004 15.7451C8.19385 15.7487 8.09698 15.75 8 15.75C7.90302 15.75 7.80615 15.7487 7.70996 15.7451C7.29621 15.7297 6.97315 15.3815 6.98828 14.9678C7.00352 14.5538 7.35169 14.2309 7.76562 14.2461C7.84336 14.249 7.9215 14.25 8 14.25C8.0785 14.25 8.15664 14.249 8.23438 14.2461ZM3.64062 13.5283C3.86128 13.1779 4.32431 13.0724 4.6748 13.293C4.80636 13.3758 4.94123 13.4543 5.0791 13.5273C5.44509 13.7212 5.58532 14.175 5.3916 14.541C5.19778 14.907 4.74394 15.0462 4.37793 14.8525C4.2068 14.7619 4.03915 14.6652 3.87598 14.5625C3.52548 14.3418 3.41997 13.8788 3.64062 13.5283ZM11.3252 13.293C11.6757 13.0724 12.1387 13.1779 12.3594 13.5283C12.58 13.8788 12.4745 14.3418 12.124 14.5625C11.9609 14.6652 11.7932 14.7619 11.6221 14.8525C11.2561 15.0462 10.8022 14.907 10.6084 14.541C10.4147 14.175 10.5549 13.7212 10.9209 13.5273C11.0588 13.4543 11.1936 13.3758 11.3252 13.293ZM1.45898 10.6084C1.825 10.4147 2.27883 10.5549 2.47266 10.9209C2.54568 11.0588 2.6242 11.1936 2.70703 11.3252C2.92755 11.6757 2.82212 12.1387 2.47168 12.3594C2.12117 12.58 1.65819 12.4745 1.4375 12.124C1.33476 11.9609 1.23809 11.7932 1.14746 11.6221C0.953776 11.2561 1.09301 10.8022 1.45898 10.6084ZM13.5273 10.9209C13.7212 10.5549 14.175 10.4147 14.541 10.6084C14.907 10.8022 15.0462 11.2561 14.8525 11.6221C14.7619 11.7932 14.6652 11.9609 14.5625 12.124C14.3418 12.4745 13.8788 12.58 13.5283 12.3594C13.1779 12.1387 13.0724 11.6757 13.293 11.3252C13.3758 11.1936 13.4543 11.0588 13.5273 10.9209ZM1.03223 6.98828C1.44616 7.00352 1.76915 7.35169 1.75391 7.76562C1.75105 7.84336 1.75 7.9215 1.75 8C1.75 8.0785 1.75105 8.15664 1.75391 8.23438C1.76915 8.64831 1.44616 8.99648 1.03223 9.01172C0.61846 9.02685 0.270252 8.70379 0.254883 8.29004C0.251341 8.19385 0.25 8.09698 0.25 8C0.25 7.90302 0.251341 7.80615 0.254883 7.70996C0.270252 7.29621 0.61846 6.97315 1.03223 6.98828ZM14.9678 6.98828C15.3815 6.97315 15.7297 7.29621 15.7451 7.70996C15.7487 7.80615 15.75 7.90302 15.75 8C15.75 8.09698 15.7487 8.19385 15.7451 8.29004C15.7297 8.70379 15.3815 9.02685 14.9678 9.01172C14.5538 8.99648 14.2309 8.64831 14.2461 8.23438C14.249 8.15664 14.25 8.0785 14.25 8C14.25 7.9215 14.249 7.84336 14.2461 7.76562C14.2309 7.35169 14.5538 7.00352 14.9678 6.98828ZM1.4375 3.87598C1.65819 3.52548 2.12117 3.41997 2.47168 3.64062C2.82212 3.86128 2.92755 4.32431 2.70703 4.6748C2.6242 4.80636 2.54568 4.94123 2.47266 5.0791C2.27883 5.44509 1.825 5.58532 1.45898 5.3916C1.09301 5.19778 0.953776 4.74394 1.14746 4.37793C1.23809 4.2068 1.33476 4.03915 1.4375 3.87598ZM13.5283 3.64062C13.8788 3.41997 14.3418 3.52548 14.5625 3.87598C14.6652 4.03915 14.7619 4.2068 14.8525 4.37793C15.0462 4.74394 14.907 5.19778 14.541 5.3916C14.175 5.58532 13.7212 5.44509 13.5273 5.0791C13.4543 4.94123 13.3758 4.80636 13.293 4.6748C13.0724 4.32431 13.1779 3.86128 13.5283 3.64062ZM4.37793 1.14746C4.74394 0.953776 5.19778 1.09301 5.3916 1.45898C5.58532 1.825 5.44509 2.27883 5.0791 2.47266C4.94123 2.54568 4.80636 2.6242 4.6748 2.70703C4.32431 2.92755 3.86128 2.82212 3.64062 2.47168C3.41997 2.12117 3.52548 1.65819 3.87598 1.4375C4.03915 1.33476 4.2068 1.23809 4.37793 1.14746ZM10.6084 1.45898C10.8022 1.09301 11.2561 0.953776 11.6221 1.14746C11.7932 1.23809 11.9609 1.33476 12.124 1.4375C12.4745 1.65819 12.58 2.12117 12.3594 2.47168C12.1387 2.82212 11.6757 2.92755 11.3252 2.70703C11.1936 2.6242 11.0588 2.54568 10.9209 2.47266C10.5549 2.27883 10.4147 1.825 10.6084 1.45898ZM8.29004 0.254883C8.70379 0.270252 9.02685 0.61846 9.01172 1.03223C8.99648 1.44616 8.64831 1.76915 8.23438 1.75391C8.15664 1.75105 8.0785 1.75 8 1.75C7.9215 1.75 7.84336 1.75105 7.76562 1.75391C7.35169 1.76915 7.00352 1.44616 6.98828 1.03223C6.97315 0.61846 7.29621 0.270252 7.70996 0.254883C7.80615 0.251341 7.90302 0.25 8 0.25C8.09698 0.25 8.19385 0.251341 8.29004 0.254883Z" fill="#000001"/>
</g>
</svg>
