<svg width="24" height="24" viewBox="0 0 24 24" fill="none" xmlns="http://www.w3.org/2000/svg">
<g id="size=24">
<path id="Path" d="M12.5391 21.2344C12.9525 21.2108 13.3073 21.527 13.3311 21.9404C13.3547 22.3539 13.0384 22.7086 12.625 22.7324C12.4182 22.7443 12.2096 22.75 12 22.75C11.7904 22.75 11.5818 22.7443 11.375 22.7324C10.9616 22.7086 10.6453 22.3539 10.6689 21.9404C10.6927 21.527 11.0475 21.2108 11.4609 21.2344C11.6392 21.2446 11.819 21.25 12 21.25C12.181 21.25 12.3608 21.2446 12.5391 21.2344ZM5.87793 19.9434C6.10583 19.5975 6.57114 19.5017 6.91699 19.7295C7.21577 19.9264 7.52716 20.1068 7.84863 20.2686C8.21828 20.4549 8.36677 20.9055 8.18066 21.2754C7.99444 21.6453 7.54379 21.7946 7.17383 21.6084C6.8001 21.4203 6.43887 21.2111 6.0918 20.9824C5.74601 20.7545 5.6502 20.2892 5.87793 19.9434ZM17.083 19.7295C17.4289 19.5017 17.8942 19.5975 18.1221 19.9434C18.3498 20.2892 18.254 20.7545 17.9082 20.9824C17.5611 21.2111 17.1999 21.4203 16.8262 21.6084C16.4562 21.7945 16.0056 21.6453 15.8193 21.2754C15.6332 20.9055 15.7817 20.4549 16.1514 20.2686C16.4728 20.1068 16.7842 19.9264 17.083 19.7295ZM2.72461 15.8193C3.09445 15.6332 3.5451 15.7817 3.73145 16.1514C3.89321 16.4728 4.07361 16.7842 4.27051 17.083C4.49833 17.4289 4.40246 17.8942 4.05664 18.1221C3.7108 18.3498 3.24546 18.254 3.01758 17.9082C2.78886 17.5611 2.57966 17.1999 2.3916 16.8262C2.20545 16.4562 2.3547 16.0056 2.72461 15.8193ZM20.2686 16.1514C20.4549 15.7817 20.9055 15.6332 21.2754 15.8193C21.6453 16.0056 21.7946 16.4562 21.6084 16.8262C21.4203 17.1999 21.2111 17.5611 20.9824 17.9082C20.7545 18.254 20.2892 18.3498 19.9434 18.1221C19.5975 17.8942 19.5017 17.4289 19.7295 17.083C19.9264 16.7842 20.1068 16.4728 20.2686 16.1514ZM2.05957 10.6689C2.47304 10.6927 2.78924 11.0475 2.76562 11.4609C2.7554 11.6392 2.75 11.819 2.75 12C2.75 12.181 2.7554 12.3608 2.76562 12.5391C2.78924 12.9525 2.47304 13.3073 2.05957 13.3311C1.64612 13.3547 1.2914 13.0384 1.26758 12.625C1.25571 12.4182 1.25 12.2096 1.25 12C1.25 11.7904 1.25571 11.5818 1.26758 11.375C1.2914 10.9616 1.64612 10.6453 2.05957 10.6689ZM21.9404 10.6689C22.3539 10.6453 22.7086 10.9616 22.7324 11.375C22.7443 11.5818 22.75 11.7904 22.75 12C22.75 12.2096 22.7443 12.4182 22.7324 12.625C22.7086 13.0384 22.3539 13.3547 21.9404 13.3311C21.527 13.3073 21.2108 12.9525 21.2344 12.5391C21.2446 12.3608 21.25 12.181 21.25 12C21.25 11.819 21.2446 11.6392 21.2344 11.4609C21.2108 11.0475 21.527 10.6927 21.9404 10.6689ZM3.01758 6.0918C3.24546 5.74601 3.7108 5.6502 4.05664 5.87793C4.40246 6.10583 4.49833 6.57114 4.27051 6.91699C4.07361 7.21577 3.89321 7.52716 3.73145 7.84863C3.5451 8.21828 3.09445 8.36677 2.72461 8.18066C2.3547 7.99444 2.20545 7.54379 2.3916 7.17383C2.57966 6.8001 2.78886 6.43887 3.01758 6.0918ZM19.9434 5.87793C20.2892 5.6502 20.7545 5.74601 20.9824 6.0918C21.2111 6.43887 21.4203 6.8001 21.6084 7.17383C21.7945 7.54379 21.6453 7.99444 21.2754 8.18066C20.9055 8.36677 20.4549 8.21828 20.2686 7.84863C20.1068 7.52716 19.9264 7.21577 19.7295 6.91699C19.5017 6.57114 19.5975 6.10583 19.9434 5.87793ZM7.17383 2.3916C7.54379 2.20545 7.99444 2.3547 8.18066 2.72461C8.36677 3.09445 8.21828 3.5451 7.84863 3.73145C7.52716 3.89321 7.21577 4.07361 6.91699 4.27051C6.57114 4.49833 6.10583 4.40246 5.87793 4.05664C5.6502 3.7108 5.74601 3.24546 6.0918 3.01758C6.43887 2.78886 6.8001 2.57966 7.17383 2.3916ZM15.8193 2.72461C16.0056 2.3547 16.4562 2.20545 16.8262 2.3916C17.1999 2.57966 17.5611 2.78886 17.9082 3.01758C18.254 3.24546 18.3498 3.7108 18.1221 4.05664C17.8942 4.40246 17.4289 4.49833 17.083 4.27051C16.7842 4.07361 16.4728 3.89321 16.1514 3.73145C15.7817 3.5451 15.6332 3.09445 15.8193 2.72461ZM12 1.25C12.2096 1.25 12.4182 1.25571 12.625 1.26758C13.0384 1.2914 13.3547 1.64612 13.3311 2.05957C13.3073 2.47304 12.9525 2.78924 12.5391 2.76562C12.3608 2.7554 12.181 2.75 12 2.75C11.819 2.75 11.6392 2.7554 11.4609 2.76562C11.0475 2.78924 10.6927 2.47304 10.6689 2.05957C10.6453 1.64612 10.9616 1.2914 11.375 1.26758C11.5818 1.25571 11.7904 1.25 12 1.25Z" fill="#000001"/>
</g>
</svg>
