<svg width="24" height="24" viewBox="0 0 24 24" fill="none" xmlns="http://www.w3.org/2000/svg">
<g id="size=24">
<path id="Path" d="M12.0001 1C18.0752 1.00003 23.0001 5.92488 23.0001 12C23.0001 18.0751 18.0752 23 12.0001 23C5.92493 23 1.00006 18.0751 1.00006 12C1.00006 5.92487 5.92493 1 12.0001 1ZM12.0001 2.5C6.75336 2.5 2.50006 6.75329 2.50006 12C2.50006 17.2467 6.75336 21.5 12.0001 21.5C17.2467 21.5 21.5001 17.2467 21.5001 12C21.5001 6.75331 17.2467 2.50003 12.0001 2.5ZM12.0001 8C14.2092 8.00003 16.0001 9.79088 16.0001 12C16.0001 14.2091 14.2092 16 12.0001 16C9.79092 16 8.00006 14.2091 8.00006 12C8.00006 9.79086 9.79092 8 12.0001 8ZM12.0001 9.5C10.6193 9.5 9.50006 10.6193 9.50006 12C9.50006 13.3807 10.6193 14.5 12.0001 14.5C13.3807 14.5 14.5001 13.3807 14.5001 12C14.5001 10.6193 13.3807 9.50003 12.0001 9.5Z" fill="#000001"/>
</g>
</svg>
