<svg width="16" height="16" viewBox="0 0 16 16" fill="none" xmlns="http://www.w3.org/2000/svg">
<g id="size=16">
<path id="Path" d="M8.00003 0C12.4183 3.83972e-05 16 3.58173 16 7.99997C16 12.4182 12.4183 15.9999 8.00003 15.9999C3.58177 15.9999 6.10349e-05 12.4182 6.10349e-05 7.99997C6.10349e-05 3.58171 3.58177 0 8.00003 0ZM8.00003 1.49999C4.41019 1.49999 1.50006 4.41013 1.50006 7.99997C1.50006 11.5898 4.41019 14.4999 8.00003 14.4999C11.5898 14.4999 14.5 11.5898 14.5 7.99997C14.5 4.41016 11.5898 1.50003 8.00003 1.49999ZM8.00003 5.04979C9.62922 5.04982 10.9502 6.37078 10.9502 7.99997C10.9502 9.62918 9.62923 10.9501 8.00003 10.9502C6.37082 10.9501 5.04985 9.62919 5.04985 7.99997C5.04987 6.37077 6.37084 5.04981 8.00003 5.04979ZM8.00003 6.45017C7.14403 6.4502 6.45026 7.14397 6.45023 7.99997C6.45023 8.85599 7.14402 9.54974 8.00003 9.54977C8.85604 9.54973 9.54983 8.85598 9.54983 7.99997C9.5498 7.14398 8.85602 6.45021 8.00003 6.45017Z" fill="#000001"/>
</g>
</svg>
