<svg width="24" height="24" viewBox="0 0 24 24" fill="none" xmlns="http://www.w3.org/2000/svg">
<g id="size=24">
<path id="Path" fill-rule="evenodd" clip-rule="evenodd" d="M10.5588 1.00661C11.4423 0.463209 12.5571 0.463294 13.4406 1.00661L21.1906 5.77516C22.0032 6.27552 22.4998 7.16369 22.5002 8.11793V15.8826C22.4997 16.8368 22.0032 17.7241 21.1906 18.2244L13.4406 22.9939C12.5572 23.5371 11.4422 23.5371 10.5588 22.9939L2.80878 18.2244C1.99621 17.724 1.50063 16.8368 1.50018 15.8826V8.11793C1.5006 7.16358 1.99605 6.27549 2.80878 5.77516L10.5588 1.00661ZM12.6545 2.28395C12.2531 2.03737 11.7463 2.03728 11.3449 2.28395L3.59491 7.05251C3.2258 7.27984 3.0006 7.68447 3.00018 8.11793V15.8826C3.00063 16.3159 3.22596 16.7197 3.59491 16.947L11.3449 21.7166C11.7462 21.963 12.2532 21.9631 12.6545 21.7166L20.4045 16.947C20.7735 16.7197 20.9997 16.3159 21.0002 15.8826V8.11793C20.9998 7.68459 20.7734 7.27987 20.4045 7.05251L12.6545 2.28395Z" fill="#000001"/>
</g>
</svg>
