<svg width="24" height="24" viewBox="0 0 24 24" fill="none" xmlns="http://www.w3.org/2000/svg">
<g id="size=24">
<path id="Path" d="M12 1.25C12.4142 1.25 12.75 1.58579 12.75 2V22C12.75 22.4142 12.4142 22.75 12 22.75C6.06299 22.7499 1.25 17.937 1.25 12C1.25 6.06298 6.06299 1.25007 12 1.25ZM15.2686 20.7725C15.6608 20.6404 16.0862 20.8511 16.2188 21.2432C16.351 21.6355 16.1403 22.0618 15.748 22.1943C15.567 22.2554 15.3825 22.3118 15.1963 22.3633C14.7973 22.4732 14.3848 22.2387 14.2744 21.8398C14.1641 21.4407 14.3978 21.0274 14.7969 20.917C14.9562 20.873 15.114 20.8246 15.2686 20.7725ZM18.5781 18.7217C18.8711 18.429 19.3459 18.4288 19.6387 18.7217C19.9312 19.0146 19.9305 19.4895 19.6377 19.7822C19.3659 20.0539 19.0785 20.3103 18.7764 20.5498C18.4519 20.807 17.98 20.7531 17.7227 20.4287C17.4654 20.1042 17.5204 19.6324 17.8447 19.375C18.1015 19.1714 18.3467 18.9531 18.5781 18.7217ZM20.665 15.4121C20.8058 15.0226 21.2355 14.8211 21.625 14.9619C22.0143 15.1029 22.216 15.5325 22.0752 15.9219C21.9444 16.2838 21.7953 16.6365 21.6289 16.9785C21.4478 17.3508 20.9993 17.5059 20.627 17.3252C20.2545 17.144 20.0992 16.6947 20.2803 16.3223C20.4233 16.0282 20.5521 15.7245 20.665 15.4121ZM21.9521 10.7168C22.3658 10.6973 22.7178 11.017 22.7373 11.4307C22.7462 11.6192 22.75 11.8092 22.75 12C22.75 12.191 22.7462 12.3816 22.7373 12.5703C22.7175 12.9837 22.3657 13.3027 21.9521 13.2832C21.5385 13.2636 21.2188 12.9126 21.2383 12.499C21.2461 12.334 21.25 12.1674 21.25 12C21.25 11.8326 21.2461 11.666 21.2383 11.501C21.2189 11.0874 21.5386 10.7364 21.9521 10.7168ZM20.627 6.6748C20.9993 6.49406 21.4478 6.64922 21.6289 7.02148C21.7952 7.36349 21.9444 7.71627 22.0752 8.07812C22.2159 8.4676 22.0144 8.89825 21.625 9.03906C21.2357 9.17978 20.8061 8.97795 20.665 8.58887C20.5521 8.2764 20.4233 7.97189 20.2803 7.67773C20.0991 7.30524 20.2545 6.85597 20.627 6.6748ZM17.7227 3.57227C17.9799 3.24779 18.4518 3.19313 18.7764 3.4502C19.0783 3.68963 19.366 3.94621 19.6377 4.21777C19.9304 4.51054 19.9312 4.98541 19.6387 5.27832C19.3459 5.57119 18.8711 5.57099 18.5781 5.27832C18.3467 5.04701 18.1015 4.82955 17.8447 4.62598C17.5203 4.36875 17.4657 3.89683 17.7227 3.57227ZM14.2744 2.16016C14.3849 1.76121 14.7982 1.52744 15.1973 1.6377C15.3833 1.6891 15.5672 1.7456 15.748 1.80664C16.1403 1.93924 16.3511 2.3645 16.2188 2.75684C16.0863 3.14909 15.6609 3.35969 15.2686 3.22754C15.114 3.17539 14.9562 3.12701 14.7969 3.08301C14.398 2.9725 14.1642 2.55921 14.2744 2.16016Z" fill="#000001"/>
</g>
</svg>
