<svg width="16" height="16" viewBox="0 0 16 16" fill="none" xmlns="http://www.w3.org/2000/svg">
<g id="size=16">
<path id="Path" d="M10.3008 13.623C10.6937 13.4922 11.119 13.7048 11.25 14.0977C11.3809 14.4905 11.1681 14.9158 10.7754 15.0469C10.67 15.082 10.5627 15.1145 10.4541 15.1445C10.0549 15.2548 9.64158 15.0203 9.53125 14.6211C9.42099 14.222 9.65468 13.8087 10.0537 13.6982C10.1374 13.6751 10.2202 13.6499 10.3008 13.623ZM7.875 0.828125C8.15107 0.828169 8.37495 1.05205 8.375 1.32812V14.6611C8.375 14.9372 8.1511 15.1611 7.875 15.1611C3.91704 15.1611 0.708135 11.953 0.708008 7.99512C0.708008 4.03708 3.91696 0.828125 7.875 0.828125ZM12.9814 11.3457C13.182 10.9836 13.6377 10.8525 14 11.0527C14.3622 11.2533 14.4943 11.7099 14.2939 12.0723C14.1864 12.2667 14.0696 12.4559 13.9443 12.6387C13.7102 12.9802 13.243 13.067 12.9014 12.833C12.5599 12.5988 12.4729 12.1317 12.707 11.79C12.8046 11.6477 12.8965 11.4993 12.9814 11.3457ZM14.5098 6.95996C14.9236 6.94522 15.2712 7.26876 15.2861 7.68262C15.2899 7.78626 15.292 7.8906 15.292 7.99512C15.292 8.10279 15.2898 8.21023 15.2861 8.31738C15.2721 8.73114 14.9254 9.0557 14.5117 9.04199C14.0978 9.02793 13.7731 8.68056 13.7871 8.2666C13.7902 8.17646 13.792 8.08591 13.792 7.99512C13.792 7.90842 13.7902 7.82183 13.7871 7.73633C13.7723 7.32249 14.0959 6.97486 14.5098 6.95996ZM12.8135 3.39453C13.142 3.14246 13.613 3.20471 13.8652 3.5332C13.9963 3.704 14.1184 3.8811 14.2314 4.06348C14.4496 4.41543 14.3411 4.87741 13.9893 5.0957C13.6373 5.31384 13.1753 5.20541 12.957 4.85352C12.87 4.7131 12.7762 4.5771 12.6758 4.44629C12.4235 4.11773 12.4849 3.64677 12.8135 3.39453ZM9.53906 1.70801C9.66381 1.31312 10.0846 1.09412 10.4795 1.21875C10.5803 1.2506 10.6803 1.284 10.7783 1.31934C11.1678 1.45989 11.3699 1.88973 11.2295 2.2793C11.089 2.6688 10.6591 2.87075 10.2695 2.73047C10.1906 2.70203 10.1102 2.67429 10.0283 2.64844C9.63338 2.52372 9.41443 2.10295 9.53906 1.70801Z" fill="#000001"/>
</g>
</svg>
