<svg width="16" height="16" viewBox="0 0 16 16" fill="none" xmlns="http://www.w3.org/2000/svg">
<g id="size=16">
<path id="Path" d="M10.4853 0C11.0821 0 11.6552 0.237229 12.0771 0.659179L15.3408 3.92285C15.7628 4.3448 16 4.91791 16 5.51464V10.4853C16 11.0821 15.7628 11.6552 15.3408 12.0771L12.0771 15.3408C11.6552 15.7628 11.0821 16 10.4853 16H5.51464C4.91791 16 4.3448 15.7628 3.92285 15.3408L0.659179 12.0771C0.237229 11.6552 0 11.0821 0 10.4853V5.51464C2.87494e-06 4.91791 0.237225 4.3448 0.659179 3.92285L3.92285 0.659179C4.3448 0.237225 4.91791 2.87495e-06 5.51464 0H10.4853ZM5.51464 1.5C5.31574 1.5 5.12404 1.57908 4.98339 1.71972L1.71972 4.98339C1.57908 5.12404 1.5 5.31573 1.5 5.51464V10.4853C1.5 10.6842 1.57908 10.8759 1.71972 11.0166L4.98339 14.2803C5.12404 14.4209 5.31573 14.5 5.51464 14.5H10.4853C10.6843 14.5 10.8759 14.4209 11.0166 14.2803L14.2803 11.0166C14.4209 10.8759 14.5 10.6843 14.5 10.4853V5.51464C14.5 5.31574 14.4209 5.12404 14.2803 4.98339L11.0166 1.71972C10.8759 1.57908 10.6842 1.5 10.4853 1.5H5.51464Z" fill="#000001"/>
</g>
</svg>
