<svg width="24" height="24" viewBox="0 0 24 24" fill="none" xmlns="http://www.w3.org/2000/svg">
<g id="size=24">
<path id="Path" d="M15.415 0.999969C16.1444 0.999969 16.8436 1.28993 17.3594 1.80563L22.1943 6.64059C22.71 7.15631 23 7.8556 23 8.58493V15.415C23 16.1443 22.71 16.8436 22.1943 17.3593L17.3594 22.1943C16.8436 22.71 16.1444 23 15.415 23H8.58495C7.85561 23 7.15633 22.71 6.64061 22.1943L1.80565 17.3593C1.28994 16.8436 0.999985 16.1443 0.999985 15.415V8.58493C0.999989 7.8556 1.28994 7.15631 1.80565 6.64059L6.64061 1.80563C7.15633 1.28992 7.85561 0.999974 8.58495 0.999969H15.415ZM8.58495 2.49997C8.25344 2.49997 7.93557 2.63177 7.70116 2.86618L2.8662 7.70114C2.63179 7.93556 2.49999 8.25342 2.49998 8.58493V15.415C2.49998 15.7465 2.6318 16.0644 2.8662 16.2988L7.70116 21.1338C7.93557 21.3682 8.25344 21.5 8.58495 21.5H15.415C15.7465 21.5 16.0644 21.3682 16.2988 21.1338L21.1338 16.2988C21.3682 16.0644 21.5 15.7465 21.5 15.415V8.58493C21.5 8.25342 21.3682 7.93556 21.1338 7.70114L16.2988 2.86618C16.0644 2.63178 15.7465 2.49997 15.415 2.49997H8.58495Z" fill="#000001"/>
</g>
</svg>
