<svg width="24" height="24" viewBox="0 0 24 24" fill="none" xmlns="http://www.w3.org/2000/svg">
<g id="size=24">
<path id="Path" fill-rule="evenodd" clip-rule="evenodd" d="M6.97004 19.9707C7.26285 19.6791 7.73803 19.6787 8.03058 19.9707C8.32184 20.2633 8.32191 20.7387 8.03058 21.0312L7.03058 22.0312C6.73802 22.3227 6.26268 22.3225 5.97004 22.0312C5.67803 21.7387 5.67838 21.2635 5.97004 20.9707L6.97004 19.9707ZM5.47004 17.4707C5.76284 17.1791 6.23803 17.1787 6.53058 17.4707C6.82184 17.7633 6.82191 18.2387 6.53058 18.5312L3.53058 21.5312C3.23802 21.8227 2.76268 21.8225 2.47004 21.5312C2.17803 21.2387 2.17838 20.7635 2.47004 20.4707L5.47004 17.4707ZM19.6302 2.31737C20.8566 2.06333 21.9386 3.14462 21.6839 4.37108C21.3035 6.19757 20.613 9.41925 19.9222 12.1826C19.7413 12.905 19.3808 13.56 18.9114 14.1465L18.9095 14.1621L18.4525 17.3594C18.3882 17.8071 18.152 18.215 17.7952 18.4932L14.2777 21.2285C13.5153 21.8204 12.4159 21.6829 11.8226 20.9219L10.0394 18.6289C9.54368 18.4719 9.13171 18.0958 8.91047 17.6475C8.67122 17.1616 8.32022 16.5752 7.87336 16.1279C7.42626 15.681 6.83977 15.3302 6.35383 15.0908C5.90525 14.8697 5.52948 14.4577 5.37238 13.9619L3.07941 12.1787C2.31736 11.5855 2.18043 10.4853 2.77277 9.72265L5.50812 6.20605C5.78629 5.84918 6.19401 5.61212 6.64191 5.54784L9.83918 5.09179C9.84362 5.09101 9.85042 5.08949 9.8548 5.08886C10.4412 4.61969 11.0964 4.25888 11.8187 4.07812C14.5819 3.38736 17.8039 2.69773 19.6302 2.31737ZM17.1653 15.7666C16.7503 16.0671 16.3151 16.3409 15.8861 16.5869C14.4374 17.4171 12.8832 18.0211 11.762 18.4004L13.0062 20.001C13.0908 20.1082 13.2483 20.128 13.3568 20.0449L16.8743 17.3096C16.9243 17.2701 16.9587 17.2105 16.9681 17.1475L17.1653 15.7666ZM2.97004 15.9707C3.26284 15.6791 3.73803 15.6787 4.03058 15.9707C4.32184 16.2633 4.32191 16.7387 4.03058 17.0312L3.03058 18.0312C2.73802 18.3227 2.26268 18.3225 1.97004 18.0312C1.67803 17.7387 1.67837 17.2635 1.97004 16.9707L2.97004 15.9707ZM19.9359 3.78612C18.1141 4.16554 14.9162 4.85092 12.1829 5.53417C10.8636 5.86456 9.684 7.17047 8.71515 8.86034C7.77031 10.5091 7.12964 12.3361 6.80402 13.3906C6.78977 13.4378 6.79169 13.4951 6.82355 13.5596C6.85843 13.6287 6.92663 13.7004 7.01691 13.7451C7.57293 14.019 8.32245 14.4561 8.9339 15.0674C9.54521 15.6791 9.98242 16.4284 10.2562 16.9844C10.301 17.0746 10.3726 17.142 10.4417 17.1767C10.5057 17.2082 10.5628 17.2113 10.6097 17.1973C11.6643 16.8716 13.4924 16.2309 15.1409 15.2861C16.8306 14.3173 18.1367 13.1376 18.4671 11.8184C19.1505 9.08471 19.8357 5.88632 20.2152 4.06444C20.2493 3.89606 20.1042 3.75239 19.9359 3.78612ZM6.85383 7.03319C6.79064 7.04251 6.73125 7.07679 6.69172 7.12694L3.95636 10.6435C3.8727 10.7522 3.89241 10.9095 4.00031 10.9941L5.6009 12.2392C5.98013 11.118 6.58303 9.5632 7.4134 8.11425C7.6594 7.68516 7.93411 7.25105 8.23468 6.83593L6.85383 7.03319ZM13.72 9.22069C14.0128 8.92913 14.488 8.92872 14.7806 9.22069C15.0718 9.51331 15.0719 9.98867 14.7806 10.2812L14.2806 10.7812C13.988 11.0727 13.5127 11.0725 13.22 10.7812C12.928 10.4887 12.9284 10.0135 13.22 9.72069L13.72 9.22069Z" fill="#000001"/>
</g>
</svg>
