<svg width="24" height="24" viewBox="0 0 24 24" fill="none" xmlns="http://www.w3.org/2000/svg">
<g id="size=24">
<path id="Path" fill-rule="evenodd" clip-rule="evenodd" d="M18.0871 13.2259C18.2604 12.8223 18.8328 12.8222 19.006 13.2259L19.8468 15.1869C19.8974 15.3047 19.9916 15.3991 20.1095 15.4496L22.0705 16.2904C22.4739 16.4638 22.4739 17.036 22.0705 17.2093L20.1095 18.0502C19.9916 18.1007 19.8974 18.195 19.8468 18.3129L19.006 20.2738C18.8327 20.6774 18.2604 20.6774 18.0871 20.2738L17.2462 18.3129C17.1957 18.195 17.1013 18.1008 16.9836 18.0502L15.0226 17.2093C14.6187 17.0361 14.6187 16.4636 15.0226 16.2904L16.9836 15.4496C17.1013 15.399 17.1957 15.3047 17.2462 15.1869L18.0871 13.2259ZM8.11148 6.75133C8.28477 6.34752 8.85826 6.34737 9.0314 6.75133L10.6144 10.4447C10.665 10.5625 10.7592 10.6569 10.8771 10.7074L14.5705 12.2904C14.9736 12.4638 14.9737 13.036 14.5705 13.2093L10.8771 14.7923C10.7593 14.8429 10.665 14.9372 10.6144 15.055L9.0314 18.7484C8.85815 19.1521 8.2848 19.152 8.11148 18.7484L6.52847 15.055C6.47798 14.9374 6.38433 14.843 6.26675 14.7923L2.57242 13.2093C2.16882 13.036 2.16881 12.4637 2.57242 12.2904L6.26675 10.7074C6.38432 10.6568 6.47796 10.5623 6.52847 10.4447L8.11148 6.75133ZM15.5763 3.78649C15.7497 3.38298 16.322 3.3829 16.4953 3.78649L17.0177 5.00524C17.0683 5.12306 17.1626 5.21741 17.2804 5.26794L18.4992 5.7904C18.9026 5.96375 18.9026 6.53603 18.4992 6.70934L17.2804 7.2318C17.1625 7.28235 17.0683 7.37661 17.0177 7.4945L16.4953 8.71325C16.3219 9.11671 15.7497 9.11671 15.5763 8.71325L15.0539 7.4945C15.0034 7.37666 14.909 7.28242 14.7912 7.2318L13.5724 6.70934C13.1688 6.53605 13.1688 5.96368 13.5724 5.7904L14.7912 5.26794C14.9089 5.21736 15.0033 5.12301 15.0539 5.00524L15.5763 3.78649Z" fill="#000001"/>
</g>
</svg>
