<svg width="16" height="16" viewBox="0 0 16 16" fill="none" xmlns="http://www.w3.org/2000/svg">
<g id="size=16">
<path id="Path" fill-rule="evenodd" clip-rule="evenodd" d="M5.69742 5.36559C5.87068 4.96176 6.4432 4.96167 6.61637 5.36559L7.77555 8.06872C7.82615 8.18657 7.92036 8.28088 8.03824 8.33142L10.7414 9.49059C11.1449 9.66393 11.145 10.2363 10.7414 10.4095L8.03824 11.5687C7.92049 11.6192 7.82616 11.7127 7.77555 11.8304L6.61637 14.5345C6.44301 14.938 5.87069 14.9381 5.69742 14.5345L4.53922 11.8304C4.48871 11.7128 4.39411 11.6193 4.27652 11.5687L1.57242 10.4095C1.16878 10.2363 1.16885 9.66392 1.57242 9.49059L4.27652 8.33142C4.3942 8.28082 4.48869 8.18644 4.53922 8.06872L5.69742 5.36559ZM11.8263 2.03649C11.9997 1.63297 12.572 1.6329 12.7453 2.03649L13.2677 3.25524C13.3183 3.37308 13.4126 3.4674 13.5304 3.51794L14.7492 4.0404C15.1527 4.21374 15.1527 4.78604 14.7492 4.95934L13.5304 5.48181C13.4125 5.53236 13.3183 5.62661 13.2677 5.7445L12.7453 6.96325C12.5719 7.36676 11.9996 7.36678 11.8263 6.96325L11.3039 5.7445C11.2533 5.62665 11.159 5.53242 11.0412 5.48181L9.82242 4.95934C9.41882 4.78605 9.4188 4.21368 9.82242 4.0404L11.0412 3.51794C11.159 3.46737 11.2533 3.37304 11.3039 3.25524L11.8263 2.03649Z" fill="#000001"/>
</g>
</svg>
