<svg width="16" height="16" viewBox="0 0 16 16" fill="none" xmlns="http://www.w3.org/2000/svg">
<g id="size=16">
<path id="Path" fill-rule="evenodd" clip-rule="evenodd" d="M7.99998 1.25C8.35761 1.25 8.70991 1.34158 9.02244 1.51562C9.33492 1.68974 9.59802 1.94095 9.78513 2.24609L9.78709 2.25L15.4687 11.6328C15.6521 11.9471 15.7489 12.305 15.75 12.6689C15.7509 13.0328 15.6552 13.3899 15.4736 13.7051C15.292 14.0202 15.0309 14.282 14.7168 14.4648C14.4027 14.6477 14.0459 14.746 13.6826 14.75H2.31736C1.95406 14.746 1.59726 14.6477 1.28318 14.4648C0.969085 14.2819 0.70791 14.0202 0.526344 13.7051C0.344821 13.3899 0.249029 13.0327 0.249976 12.6689C0.251006 12.3051 0.348903 11.948 0.532203 11.6338L0.538062 11.623L6.21287 2.25L6.21482 2.24609C6.40189 1.94097 6.66508 1.68976 6.97752 1.51562C7.29001 1.34155 7.64236 1.25004 7.99998 1.25ZM7.99998 2.75C7.89722 2.75005 7.79666 2.7768 7.70798 2.82617C7.61988 2.87529 7.54575 2.9447 7.49412 3.02832V3.03027L1.82517 12.3936C1.77619 12.4792 1.75025 12.5755 1.74998 12.6729C1.74972 12.7717 1.77616 12.8692 1.82615 12.9561C1.87623 13.043 1.94905 13.1171 2.03806 13.1689C2.12613 13.2201 2.2269 13.2483 2.33005 13.25H13.6699C13.7731 13.2483 13.8738 13.2201 13.9619 13.1689C14.051 13.1171 14.1237 13.043 14.1738 12.9561C14.2238 12.8692 14.2502 12.7718 14.25 12.6729C14.2497 12.5754 14.2238 12.4792 14.1748 12.3936L8.50584 3.03027V3.02832C8.45417 2.94469 8.38012 2.87528 8.29197 2.82617C8.20327 2.77683 8.10275 2.75 7.99998 2.75Z" fill="#000001"/>
</g>
</svg>
