<svg width="24" height="24" viewBox="0 0 24 24" fill="none" xmlns="http://www.w3.org/2000/svg">
<g id="size=24">
<path id="Path" fill-rule="evenodd" clip-rule="evenodd" d="M12 2C12.4719 2 12.9342 2.12724 13.3418 2.36621C13.7491 2.60513 14.0877 2.94708 14.3261 3.35645L14.3281 3.36035L22.6435 17.8203C22.8768 18.2411 22.9986 18.7162 23 19.1982C23.0013 19.6803 22.8813 20.156 22.6504 20.5781C22.4193 21.0004 22.0839 21.3567 21.6748 21.6074C21.2655 21.8582 20.7976 21.9945 20.3183 22H3.68161C3.20235 21.9944 2.73434 21.8582 2.32516 21.6074C1.91612 21.3566 1.58062 21.0004 1.34957 20.5781C1.11869 20.156 0.998669 19.6802 0.999965 19.1982C1.0013 18.7163 1.12418 18.2411 1.35739 17.8203L1.36227 17.8105L9.67184 3.36035L10.3222 3.7334L9.67379 3.35645C9.91216 2.9471 10.2509 2.60516 10.6582 2.36621C11.0657 2.1272 11.5281 2.00007 12 2Z" fill="#000001"/>
</g>
</svg>
