<svg width="24" height="24" viewBox="0 0 24 24" fill="none" xmlns="http://www.w3.org/2000/svg">
<g id="size=24">
<path id="Path" fill-rule="evenodd" clip-rule="evenodd" d="M13.4816 6.70685C14.458 5.73101 16.0416 5.7307 17.0178 6.70685C17.9928 7.68296 17.9929 9.26596 17.0178 10.242L5.7033 21.5565C4.7273 22.532 3.14441 22.5316 2.16815 21.5565C1.19184 20.5801 1.19183 18.9966 2.16815 18.0203L13.4816 6.70685ZM3.22869 19.0809C2.83817 19.4714 2.83817 20.1054 3.22869 20.4959C3.61917 20.8853 4.25254 20.8857 4.64276 20.4959L13.3049 11.8338L11.8908 10.4188L3.22869 19.0809ZM18.4064 13.0115C18.6664 12.4063 19.5254 12.4062 19.7853 13.0115L20.3566 14.3455C20.4326 14.5219 20.5746 14.6634 20.7512 14.7391L22.0842 15.3104C22.6882 15.5708 22.6885 16.4291 22.0842 16.6893L20.7512 17.2606C20.5743 17.3364 20.4325 17.4773 20.3566 17.6541L19.7853 18.9871C19.5256 19.5927 18.6667 19.5921 18.4064 18.9871L17.8351 17.6541C17.7594 17.4778 17.6178 17.3365 17.4416 17.2606L16.1086 16.6893C15.5025 16.4295 15.5025 15.5701 16.1086 15.3104L17.4416 14.7391C17.6179 14.6632 17.7594 14.5219 17.8351 14.3455L18.4064 13.0115ZM15.9572 7.76739C15.5668 7.37703 14.9327 7.37735 14.5422 7.76739L12.9513 9.35821L14.3654 10.7733L15.9572 9.18146C16.3466 8.7912 16.3464 8.15772 15.9572 7.76739ZM6.14959 2.12481C5.90484 1.51263 6.51299 0.904353 7.12518 1.14923L8.22186 1.58771C8.40027 1.65861 8.60021 1.65902 8.7785 1.58771L9.87518 1.14923C10.4869 0.905636 11.0942 1.51309 10.8498 2.12481L10.4113 3.22149C10.3401 3.40008 10.3399 3.59958 10.4113 3.77814L10.8498 4.87481C11.0934 5.48626 10.4866 6.09275 9.87518 5.84942L8.7785 5.41095C8.60018 5.33963 8.40028 5.34 8.22186 5.41095L7.12518 5.84942C6.51307 6.09426 5.90511 5.48692 6.14959 4.87481L6.58904 3.77814C6.66016 3.59997 6.65989 3.39974 6.58904 3.22149L6.14959 2.12481ZM17.8996 2.12481C17.6548 1.51263 18.263 0.904353 18.8752 1.14923L19.5969 1.43829C19.7752 1.50911 19.9753 1.50956 20.1535 1.43829L20.8752 1.14923C21.4869 0.905627 22.0942 1.51309 21.8498 2.12481L21.5617 2.84649C21.4904 3.02513 21.4903 3.22453 21.5617 3.40314L21.8498 4.12481C22.0935 4.73627 21.4866 5.34276 20.8752 5.09942L20.1535 4.81134C19.9751 4.73999 19.7753 4.74033 19.5969 4.81134L18.8752 5.09942C18.2631 5.34426 17.6551 4.73692 17.8996 4.12481L18.1887 3.40314C18.2598 3.22489 18.2596 3.02482 18.1887 2.84649L17.8996 2.12481Z" fill="#000001"/>
</g>
</svg>
