<svg width="16" height="16" viewBox="0 0 16 16" fill="none" xmlns="http://www.w3.org/2000/svg">
<g id="size=16">
<path id="Path" fill-rule="evenodd" clip-rule="evenodd" d="M8.58615 4.10334C9.36724 3.32282 10.6334 3.32247 11.4143 4.10334C12.1943 4.88428 12.1945 6.15067 11.4143 6.93146L3.63595 14.7098C2.8552 15.4905 1.58895 15.4899 0.807829 14.7098C0.0267828 13.9287 0.0267867 12.6627 0.807829 11.8817L8.58615 4.10334ZM1.86838 12.9422C1.67312 13.1375 1.67312 13.454 1.86838 13.6492C2.06371 13.8436 2.38044 13.8442 2.57541 13.6492L8.40939 7.81525L7.70236 7.10822L1.86838 12.9422ZM12.5764 8.28595C12.7499 7.88286 13.3221 7.88259 13.4953 8.28595L14.0178 9.5047C14.0685 9.62228 14.1628 9.71696 14.2805 9.7674L15.4983 10.2899C15.9009 10.4635 15.9011 11.0354 15.4983 11.2088L14.2805 11.7313C14.1627 11.7818 14.0684 11.8762 14.0178 11.994L13.4953 13.2127C13.3222 13.6162 12.75 13.6157 12.5764 13.2127L12.0539 11.994C12.0035 11.8764 11.9086 11.782 11.7912 11.7313L10.5725 11.2088C10.1685 11.0356 10.1684 10.463 10.5725 10.2899L11.7912 9.7674C11.9086 9.71674 12.0035 9.62223 12.0539 9.5047L12.5764 8.28595ZM10.3537 5.16388C10.1586 4.9688 9.842 4.96916 9.6467 5.16388L8.76291 6.04767L9.46994 6.7547L10.3537 5.87092C10.5482 5.6759 10.5479 5.35904 10.3537 5.16388ZM3.43283 0.83283C3.26968 0.424737 3.67513 0.019285 4.08322 0.182439L5.06467 0.575017C5.1835 0.622115 5.31704 0.622503 5.43576 0.575017L6.4172 0.182439C6.82482 0.0206166 7.22942 0.425206 7.06662 0.83283L6.67404 1.8133C6.62647 1.93241 6.62643 2.06627 6.67404 2.18537L7.06662 3.16584C7.2287 3.57315 6.82451 3.97767 6.4172 3.81623L5.43576 3.42365C5.31695 3.37613 5.18357 3.37644 5.06467 3.42365L4.08322 3.81623C3.67517 3.97941 3.26985 3.57389 3.43283 3.16584L3.82541 2.18537C3.87286 2.06653 3.87269 1.93218 3.82541 1.8133L3.43283 0.83283ZM12.1828 0.83283C12.0197 0.424737 12.4251 0.019285 12.8332 0.182439L13.5647 0.475408C13.6834 0.522448 13.8171 0.522858 13.9358 0.475408L14.6672 0.182439C15.0748 0.0206109 15.4794 0.425205 15.3166 0.83283L15.0246 1.5633C14.9771 1.68241 14.977 1.81628 15.0246 1.93537L15.3166 2.66584C15.4787 3.07315 15.0745 3.47767 14.6672 3.31623L13.9358 3.02326C13.817 2.97579 13.6835 2.97611 13.5647 3.02326L12.8332 3.31623C12.4252 3.4794 12.0199 3.07389 12.1828 2.66584L12.4758 1.93537C12.5232 1.81653 12.5231 1.68219 12.4758 1.5633L12.1828 0.83283Z" fill="#000001"/>
</g>
</svg>
