<svg width="24" height="24" viewBox="0 0 24 24" fill="none" xmlns="http://www.w3.org/2000/svg">
<g id="size=24">
<path id="Path" fill-rule="evenodd" clip-rule="evenodd" d="M1.21967 1.2198C1.51258 0.927232 1.98743 0.927049 2.28022 1.2198L16.5595 15.4991C16.5699 15.5069 16.5818 15.5162 16.5917 15.5245C16.6372 15.5627 16.6789 15.6068 16.7128 15.6524L22.7802 21.7198C23.0713 22.0127 23.0722 22.488 22.7802 22.7803C22.4879 23.0723 22.0126 23.0714 21.7197 22.7803L16.1552 17.2169L11.5478 22.7315C11.3333 22.9877 10.9725 23.0706 10.6669 22.9356C10.3612 22.7994 10.1827 22.4749 10.2294 22.1436L11.1474 15.7354L2.66694 14.796C2.39322 14.7655 2.15712 14.5853 2.05366 14.3302C1.95069 14.074 1.99791 13.7814 2.17475 13.5694L6.87885 7.93953L1.21967 2.28035C0.926925 1.98756 0.927116 1.51271 1.21967 1.2198ZM4.22163 13.4591L12.082 14.3302C12.2831 14.3529 12.4687 14.4562 12.5927 14.6163C12.7159 14.7765 12.7708 14.9816 12.7421 15.1817L12.0888 19.7442L15.0908 16.1514L7.9433 9.00496L4.22163 13.4591ZM14.9726 8.50007L21.332 9.20515C21.6058 9.23614 21.8424 9.41515 21.9453 9.67097C22.0471 9.92666 22.0016 10.2194 21.8251 10.4307L19.2558 13.5059C18.9906 13.8228 18.5169 13.8644 18.1992 13.6007C17.8817 13.3351 17.8393 12.8618 18.1044 12.544L19.7783 10.5421L14.8076 9.99128C14.3966 9.9456 14.1009 9.57406 14.1455 9.16316C14.1911 8.75162 14.5611 8.45473 14.9726 8.50007ZM12.4521 1.2696C12.6671 1.01244 13.0268 0.929077 13.333 1.0655C13.6378 1.20248 13.8178 1.5255 13.7705 1.85652L13.0634 6.78914C13.004 7.19766 12.6235 7.48335 12.2148 7.42585C11.8054 7.36722 11.5215 6.98649 11.579 6.57722L11.9111 4.25593L11.0341 5.30574C10.769 5.62256 10.2952 5.66425 9.97748 5.40046C9.6599 5.13504 9.61778 4.66263 9.88276 4.3448L12.4521 1.2696Z" fill="#000001"/>
</g>
</svg>
