<svg width="24" height="24" viewBox="0 0 24 24" fill="none" xmlns="http://www.w3.org/2000/svg">
<g id="size=24">
<path id="Path" fill-rule="evenodd" clip-rule="evenodd" d="M12.4526 1.26888C12.6674 1.01244 13.0277 0.929101 13.3335 1.06478C13.6389 1.20133 13.817 1.52556 13.77 1.85677L12.852 8.26498L21.3325 9.20443C21.6063 9.23507 21.8426 9.41485 21.9458 9.67025C22.0484 9.9263 22.0024 10.2192 21.8257 10.431L11.5483 22.7308C11.3336 22.9877 10.9734 23.0707 10.6675 22.9349C10.362 22.7983 10.1827 22.4752 10.23 22.1439L11.1479 15.7357L2.66745 14.7952C2.39352 14.7645 2.15721 14.5851 2.05417 14.3294C1.95192 14.0735 1.99754 13.7803 2.17429 13.5687L12.4526 1.26888ZM4.22214 13.4583L12.0825 14.3294C12.2836 14.3519 12.4691 14.4559 12.5932 14.6156C12.717 14.7756 12.771 14.9807 12.7426 15.181L12.0893 19.7445L19.7788 10.5413L11.9175 9.67025C11.7163 9.64767 11.5318 9.54399 11.4077 9.38412C11.284 9.22384 11.2287 9.01915 11.2573 8.81869L11.9116 4.25619L4.22214 13.4583Z" fill="#000001"/>
</g>
</svg>
